<svg width="120" height="120" viewBox="0 0 120 120" fill="none" xmlns="http://www.w3.org/2000/svg">
<path d="M59.586 0C71.0125 0 80.2753 9.26297 80.2755 20.6895C80.2755 25.6299 78.5428 30.1649 75.6534 33.7227L62.0694 52.79V60.4141H57.1036V52.791L43.5176 33.7217C40.6288 30.1641 38.8965 25.6293 38.8965 20.6895C38.8967 9.26303 48.1596 0.000109271 59.586 0Z" fill="#32ADDF"/>
<path d="M59.586 120C71.0125 120 80.2753 110.737 80.2755 99.3105C80.2755 94.3701 78.5428 89.8351 75.6534 86.2773L62.0694 67.21V59.5859H57.1036V67.209L43.5176 86.2783C40.6288 89.8359 38.8965 94.3707 38.8965 99.3105C38.8967 110.737 48.1596 120 59.586 120Z" fill="#32ADDF"/>
<path d="M120 60.4136C120 71.8401 110.737 81.1029 99.3105 81.103C94.3701 81.103 89.8351 79.3704 86.2773 76.481L67.21 62.897H59.5859V57.9312H67.209L86.2783 44.3452C89.8359 41.4564 94.3707 39.7241 99.3105 39.7241C110.737 39.7242 120 48.9872 120 60.4136Z" fill="#343A7D"/>
<path d="M0 60.4136C0 71.8401 9.26297 81.1029 20.6895 81.103C25.6299 81.103 30.1649 79.3704 33.7227 76.481L52.79 62.897H60.4141V57.9312H52.791L33.7217 44.3452C30.1641 41.4564 25.6293 39.7241 20.6895 39.7241C9.26303 39.7242 0.000109271 48.9872 0 60.4136Z" fill="#343A7D"/>
</svg>
