<svg width="107" height="120" viewBox="0 0 107 120" fill="none" xmlns="http://www.w3.org/2000/svg">
<g clip-path="url(#clip0_7_2223)">
<path d="M33.8293 79.0515C37.7957 83.0232 44.2287 83.0232 48.2016 79.0515C52.168 75.0798 52.168 68.6382 48.2016 64.6665L17.431 33.8547C13.4646 29.8831 7.0316 29.8831 3.05865 33.8547C-0.907727 37.8264 -0.907727 44.268 3.05865 48.2463L21.2592 66.4251L33.8293 79.0515Z" fill="#32ADDF"/>
<path d="M48.2016 3.02978C44.2353 -0.941894 37.8022 -0.941894 33.8293 3.02978L3.05865 33.835C-0.828794 37.7276 -1.07217 43.8136 2.65083 47.805L2.80869 47.9697L3.0126 48.1739C3.02576 48.187 3.03891 48.2068 3.05865 48.22C3.0718 48.2397 3.09154 48.2529 3.11127 48.2661L21.2592 66.4185C11.4913 56.6376 24.6073 41.0341 24.6073 41.0341L48.2016 17.4148C52.168 13.4431 52.168 7.00146 48.2016 3.02978Z" fill="#32ADDF"/>
<path d="M73.1707 40.9946C69.2043 37.0229 62.7713 37.0229 58.7984 40.9946C54.832 44.9663 54.832 51.4079 58.7984 55.3796L89.569 86.1914C93.5354 90.1631 99.9684 90.1631 103.935 86.1914C107.901 82.2197 107.901 75.7781 103.935 71.7998L85.7342 53.621L73.1707 40.9946Z" fill="#32ADDF"/>
<path d="M58.7984 117.016C62.7647 120.988 69.1978 120.988 73.1707 117.016L103.935 86.2047C107.822 82.312 108.066 76.2261 104.343 72.2346L104.185 72.0634L103.981 71.8592C103.968 71.846 103.954 71.8263 103.935 71.8131C103.922 71.7933 103.902 71.7802 103.882 71.767L85.7342 53.6145C95.5087 63.4021 82.3861 78.999 82.3861 78.999L58.8049 102.631C54.832 106.603 54.832 113.045 58.7984 117.016Z" fill="#32ADDF"/>
<path d="M47.2084 112.959C45.5837 118.149 40.0716 121.047 34.8817 119.42C29.6985 117.8 26.8108 112.268 28.429 107.077L60.2586 6.91595C61.8833 1.72576 67.402 -1.17231 72.5853 0.45456C77.7686 2.07485 80.6562 7.60753 79.0381 12.7977L47.2084 112.959Z" fill="#343A7D"/>
</g>
<defs>
<clipPath id="clip0_7_2223">
<rect width="107" height="120" fill="white"/>
</clipPath>
</defs>
</svg>
