<svg width="50" height="50" viewBox="0 0 50 50" fill="none" xmlns="http://www.w3.org/2000/svg">
<rect x="0.5" y="0.5" width="49" height="49" rx="24.5" stroke="#2C2E9C"/>
<path d="M29.96 19.17C31.96 20.56 33.34 22.77 33.62 25.32" stroke="#2C2E9C" stroke-width="1.5" stroke-linecap="round" stroke-linejoin="round"/>
<path d="M16.49 25.37C16.75 22.83 18.11 20.62 20.09 19.22" stroke="#2C2E9C" stroke-width="1.5" stroke-linecap="round" stroke-linejoin="round"/>
<path d="M21.19 33.9399C22.35 34.5299 23.67 34.8599 25.06 34.8599C26.4 34.8599 27.66 34.5599 28.79 34.0099" stroke="#2C2E9C" stroke-width="1.5" stroke-linecap="round" stroke-linejoin="round"/>
<path d="M25.06 20.7C26.5954 20.7 27.84 19.4554 27.84 17.92C27.84 16.3847 26.5954 15.14 25.06 15.14C23.5247 15.14 22.28 16.3847 22.28 17.92C22.28 19.4554 23.5247 20.7 25.06 20.7Z" stroke="#2C2E9C" stroke-width="1.5" stroke-linecap="round" stroke-linejoin="round"/>
<path d="M17.83 32.92C19.3653 32.92 20.61 31.6753 20.61 30.14C20.61 28.6046 19.3653 27.36 17.83 27.36C16.2946 27.36 15.05 28.6046 15.05 30.14C15.05 31.6753 16.2946 32.92 17.83 32.92Z" stroke="#2C2E9C" stroke-width="1.5" stroke-linecap="round" stroke-linejoin="round"/>
<path d="M32.17 32.92C33.7054 32.92 34.95 31.6753 34.95 30.14C34.95 28.6046 33.7054 27.36 32.17 27.36C30.6347 27.36 29.39 28.6046 29.39 30.14C29.39 31.6753 30.6347 32.92 32.17 32.92Z" stroke="#2C2E9C" stroke-width="1.5" stroke-linecap="round" stroke-linejoin="round"/>
</svg>
