<svg width="79" height="29" viewBox="0 0 79 29" fill="none" xmlns="http://www.w3.org/2000/svg">
<path d="M73.3096 10.6704C76.2736 10.6704 78.6448 8.2992 78.6448 5.3352C78.6448 2.3712 76.2736 0 73.3096 0C70.3456 0 67.9744 2.3712 67.9744 5.3352C67.9744 8.2992 70.3456 10.6704 73.3096 10.6704ZM73.3096 1.77839C75.2856 1.77839 76.6688 3.35919 76.6688 5.13759C76.6688 7.11359 75.088 8.4968 73.3096 8.4968C71.3336 8.4968 69.9504 6.91599 69.9504 5.13759C69.9504 3.35919 71.3336 1.77839 73.3096 1.77839Z" fill="#0071BC"/>
<path d="M45.448 15.0178C48.412 15.0178 50.7832 12.6466 50.7832 9.68261C50.7832 6.71861 48.412 4.34741 45.448 4.34741C42.484 4.34741 40.1128 6.71861 40.1128 9.68261C39.9152 12.6466 42.2864 15.0178 45.448 15.0178ZM45.448 6.32341C47.424 6.32341 48.8072 7.90421 48.8072 9.68261C48.8072 11.6586 47.2264 13.0418 45.448 13.0418C43.472 13.0418 42.0888 11.461 42.0888 9.68261C41.8912 7.70661 43.472 6.32341 45.448 6.32341Z" fill="#32ADDF"/>
<path d="M0 28.257H74.2976V9.68262H72.3216V26.281H0V28.257Z" fill="#0071BC"/>
<path d="M0 10.6706V8.69458H40.9032V10.6706H0Z" fill="#32ADDF"/>
</svg>
