<svg width="344" height="137" viewBox="0 0 344 137" fill="none" xmlns="http://www.w3.org/2000/svg">
<g opacity="0.36">
<path d="M224.166 79.6681C206.353 79.6457 191.247 67.9417 186.167 51.7843L137.046 51.7619L43.5928 51.7843V51.7394H-36.9706V29.3166L-35.2695 29.2941H-30.7939L44.4434 29.2716V29.2941H186.167V27.8615C188.114 21.685 191.493 16.1575 195.969 11.6818C196.439 11.2119 196.953 10.7416 197.468 10.2941V10.2716C204.539 3.89371 213.894 -0.0222321 224.144 0.000152588C246.164 0.000183105 264 17.8136 264 39.8341C263.978 61.8547 246.187 79.6233 224.166 79.6681ZM223.718 57.2892C233.605 57.2892 241.621 49.2743 241.621 39.3869C241.621 29.4994 233.605 21.4836 223.718 21.4836C213.83 21.4837 205.815 29.4995 205.815 39.3869C205.816 49.2742 213.831 57.289 223.718 57.2892Z" fill="#32ADDF"/>
<path d="M304.166 136.812C286.353 136.789 271.247 125.085 266.167 108.928L217.046 108.905L123.593 108.928V108.883H-136V86.4366L43.0293 86.459L44.7305 86.4366H49.2061L124.443 86.4141V86.4366H266.167V85.0049C268.114 78.8285 271.493 73.3009 275.969 68.8252C276.439 68.3554 276.953 67.885 277.468 67.4375V67.4151C284.539 61.0372 293.894 57.1212 304.144 57.1436C326.164 57.1436 344 74.957 344 96.9776C343.977 118.998 326.186 136.767 304.166 136.812ZM303.719 114.433C313.606 114.432 321.621 106.417 321.621 96.5293C321.621 86.642 313.606 78.6272 303.719 78.627C293.831 78.627 285.816 86.6419 285.815 96.5293C285.815 106.417 293.831 114.433 303.719 114.433Z" fill="#343A7D"/>
</g>
</svg>
