<svg width="240" height="128" viewBox="0 0 240 128" fill="none" xmlns="http://www.w3.org/2000/svg">
<g opacity="0.36">
<path d="M111.346 74.0254C127.898 74.0046 141.933 63.1291 146.654 48.1162L192.295 48.0957L279.129 48.1162V48.0752H353.986V27.2393L352.405 27.2188H348.246L278.338 27.1983V27.2188H146.654V25.8877C144.845 20.1488 141.704 15.0131 137.545 10.8545C137.109 10.418 136.631 9.98122 136.153 9.56545V9.54494C129.582 3.61879 120.89 -0.0207672 111.366 2.28882e-05C90.9057 9.91821e-05 74.3333 16.5519 74.3333 37.0127C74.354 57.4735 90.8851 73.9838 111.346 74.0254ZM111.762 53.2315C102.575 53.2315 95.1272 45.7829 95.1272 36.5957C95.1274 27.4088 102.575 19.961 111.762 19.961C120.949 19.961 128.396 27.4088 128.397 36.5957C128.397 45.7829 120.949 53.2314 111.762 53.2315Z" fill="white"/>
<path d="M37.0127 127.122C53.5642 127.101 67.6002 116.225 72.3203 101.212L117.962 101.192L204.795 101.212V101.171H446V80.315L279.652 80.3364L278.071 80.315H273.913L204.005 80.2945V80.315H72.3203V78.9839C70.5113 73.245 67.3705 68.1093 63.2119 63.9507C62.7754 63.5142 62.2975 63.0774 61.8193 62.6616V62.6411C55.2486 56.715 46.5566 53.0754 37.0332 53.0962C16.5724 53.0962 5.5106e-06 69.6481 0 90.1089C0.0207935 110.57 16.5519 127.08 37.0127 127.122ZM37.4287 106.328C28.2416 106.328 20.794 98.88 20.7939 89.6929C20.7939 80.5057 28.2416 73.0581 37.4287 73.0581C46.6157 73.0583 54.0635 80.5059 54.0635 89.6929C54.0634 98.8799 46.6156 106.327 37.4287 106.328Z" fill="white"/>
</g>
</svg>
