<svg width="387" height="171" viewBox="0 0 387 171" fill="none" xmlns="http://www.w3.org/2000/svg">
<g opacity="0.36">
<path d="M449.457 99.4189C427.227 99.3909 408.377 84.7851 402.038 64.6221L340.738 64.5947L224.117 64.6221V64.5664H123.581V36.584L125.703 36.5557H131.288L225.177 36.5283V36.5557H402.038V34.7686C404.467 27.0608 408.684 20.1625 414.269 14.5771C414.856 13.9907 415.498 13.4042 416.14 12.8457V12.8184C424.965 4.85925 436.639 -0.0279236 449.429 0C476.909 0.000144958 499.166 22.2294 499.167 49.709C499.139 77.1889 476.937 99.3631 449.457 99.4189ZM448.898 71.4922C461.237 71.4922 471.24 61.49 471.24 49.1514C471.24 36.8126 461.237 26.8096 448.898 26.8096C436.559 26.8096 426.557 36.8126 426.557 49.1514C426.558 61.49 436.56 71.4921 448.898 71.4922Z" fill="#32ADDF"/>
<path d="M549.29 170.729C527.061 170.701 508.21 156.095 501.871 135.932L440.572 135.904L323.95 135.932V135.877H0V107.866L223.414 107.894L225.536 107.866H231.121L325.011 107.838V107.866H501.871V106.079C504.301 98.3711 508.517 91.4728 514.103 85.8875C514.689 85.301 515.331 84.7145 515.974 84.156V84.1287C524.798 76.1695 536.472 71.2824 549.263 71.3103C576.742 71.3104 599 93.5395 599 121.019C598.972 148.499 576.77 170.673 549.29 170.729ZM548.732 142.802C561.071 142.801 571.073 132.799 571.073 120.461C571.073 108.122 561.071 98.1191 548.732 98.1189C536.394 98.1189 526.391 108.122 526.391 120.461C526.391 132.799 536.394 142.802 548.732 142.802Z" fill="#343A7D"/>
</g>
</svg>
